<svg width="124" height="29" viewBox="0 0 124 29" fill="none" xmlns="http://www.w3.org/2000/svg">
<path d="M27.3803 9.9425C27.7387 9.9425 27.8581 10.0719 27.8581 10.4203V18.304H31.9095C32.2579 18.304 32.3873 18.4334 32.3873 18.7818V19.4786C32.3873 19.827 32.2579 19.9564 31.9095 19.9564H26.5741C26.2257 19.9564 26.0863 19.827 26.0863 19.4786V10.4203C26.0863 10.0719 26.2257 9.9425 26.5741 9.9425H27.3803Z" fill="#788CA0"/>
<path fill-rule="evenodd" clip-rule="evenodd" d="M39.9027 9.73376C37.3743 9.73376 35.921 11.1174 35.921 13.4168V16.4827C35.921 18.7821 37.3843 20.1657 39.9027 20.1657C42.4211 20.1657 43.8844 18.7821 43.8844 16.4827V13.4168C43.8844 11.1174 42.4311 9.73376 39.9027 9.73376ZM39.9526 11.4259C41.4059 11.4259 42.2122 12.1226 42.2122 13.4167V16.5025C42.2122 17.7766 41.4059 18.4933 39.9526 18.4933C38.4993 18.4933 37.7029 17.8065 37.7029 16.5025V13.4167C37.7029 12.1326 38.4993 11.4259 39.9526 11.4259Z" fill="#788CA0"/>
<path d="M55.74 14.4719C56.1282 14.4719 56.2178 14.6013 56.2178 14.9497V16.8409C56.2391 17.7432 55.8513 18.6068 55.1626 19.1901C54.3182 19.8625 53.2535 20.1961 52.1764 20.1258C49.5982 20.1258 48.1947 18.7422 48.1947 16.4428V13.357C48.1947 11.0874 49.648 9.69385 52.1764 9.69385C54.1672 9.69385 55.4613 10.4802 56.0087 12.053C56.0708 12.1728 56.0728 12.3149 56.014 12.4364C55.9552 12.5578 55.8426 12.6445 55.7101 12.6701L54.9337 12.9389C54.5952 13.0584 54.4559 12.9887 54.3364 12.6403C53.9972 11.7656 53.1076 11.2327 52.1764 11.3462C50.7131 11.3462 49.9168 12.053 49.9168 13.3371V16.5025C49.9168 17.8065 50.7231 18.4933 52.1764 18.4933C53.6297 18.4933 54.5256 17.8264 54.5256 16.8509V16.1143H52.3655C52.0072 16.1143 51.8777 15.9749 51.8777 15.6265V14.9497C51.8777 14.6013 52.0072 14.4719 52.3655 14.4719H55.74Z" fill="#788CA0"/>
<path fill-rule="evenodd" clip-rule="evenodd" d="M64.3104 9.73376C61.782 9.73376 60.3287 11.1174 60.3287 13.4168V16.4827C60.3287 18.7821 61.792 20.1657 64.3104 20.1657C66.8288 20.1657 68.2921 18.7821 68.2921 16.4827V13.4168C68.2921 11.1174 66.8388 9.73376 64.3104 9.73376ZM64.3602 11.4259C65.8036 11.4259 66.6099 12.1226 66.6099 13.4167V16.5025C66.6099 17.7766 65.8136 18.4933 64.3602 18.4933C62.9069 18.4933 62.1007 17.8065 62.1007 16.5025V13.4167C62.1007 12.1326 62.9169 11.4259 64.3602 11.4259Z" fill="#788CA0"/>
<path d="M72.9806 10.2312C72.9806 10.0122 73.0503 9.9425 73.2693 9.9425H73.7272C73.9461 9.9425 73.9959 10.0122 73.9959 10.2312V19.6677C73.9959 19.8867 73.9959 19.9564 73.7272 19.9564H73.2693C73.0503 19.9564 72.9806 19.8867 72.9806 19.6677V10.2312Z" fill="#788CA0"/>
<path fill-rule="evenodd" clip-rule="evenodd" d="M86.1897 13.0681C86.1897 11.3419 84.7903 9.9425 83.0641 9.9425H79.3512C79.1421 9.9425 79.0625 10.0122 79.0625 10.2312V19.6677C79.0625 19.8867 79.1421 19.9564 79.3512 19.9564H79.819C80.0281 19.9564 80.0778 19.8867 80.0778 19.6677V16.1937H83.0641C84.7903 16.1937 86.1897 14.7943 86.1897 13.0681ZM84.8527 14.1221C84.4651 14.7935 83.7487 15.2071 82.9735 15.2071H79.9872V10.8671H82.9735C83.7487 10.8671 84.4651 11.2807 84.8527 11.9521C85.2404 12.6235 85.2404 13.4507 84.8527 14.1221Z" fill="#788CA0"/>
<path d="M93.964 9.74386C95.5422 9.56969 97.0476 10.4519 97.6669 11.9139C97.7466 12.0731 97.6669 12.2025 97.5077 12.2822L97.0697 12.4813C96.8905 12.5509 96.8208 12.541 96.7113 12.3519C96.2486 11.2676 95.1375 10.6074 93.964 10.7194C92.2817 10.7194 91.3659 11.3863 91.3659 12.5808C91.3458 13.3356 91.8852 13.9898 92.6301 14.1137C93.1655 14.2883 93.7206 14.3953 94.2825 14.4323C94.9627 14.4685 95.6337 14.6061 96.2734 14.8404C97.2841 15.1602 97.9321 16.1448 97.8262 17.1995C97.8262 19.061 96.4724 20.1858 93.9839 20.1858C92.302 20.3782 90.7138 19.3706 90.1714 17.7669C90.1359 17.6951 90.1343 17.6111 90.167 17.5379C90.1997 17.4648 90.2634 17.41 90.3407 17.3887L90.7787 17.2294C90.8484 17.2009 90.9269 17.203 90.9951 17.2352C91.0632 17.2673 91.1147 17.3266 91.137 17.3986C91.5939 18.5526 92.7458 19.2775 93.9839 19.1904C95.8652 19.1904 96.791 18.5334 96.791 17.1995C96.8272 16.4755 96.3346 15.8313 95.6263 15.6765C95.1113 15.5229 94.5802 15.4294 94.0436 15.3978L92.9686 15.2585C92.6321 15.1871 92.2998 15.0973 91.9732 14.9897C91.6505 14.8922 91.3497 14.7334 91.0872 14.5219C90.5527 14.0378 90.2609 13.3412 90.2909 12.6206C90.3606 10.8786 91.6646 9.74386 93.964 9.74386Z" fill="#788CA0"/>
<path d="M103.192 16.5521C103.279 18.0133 104.49 19.1534 105.954 19.1534C107.418 19.1534 108.628 18.0133 108.716 16.5521V10.2312C108.716 10.0122 108.786 9.9425 109.005 9.9425H109.463C109.682 9.9425 109.751 10.0122 109.751 10.2312V16.5421C109.751 18.8017 108.417 20.1654 105.959 20.1654C103.5 20.1654 102.166 18.8017 102.166 16.5421V10.2312C102.166 10.0122 102.236 9.9425 102.445 9.9425H102.913C103.122 9.9425 103.192 10.0122 103.192 10.2312V16.5521Z" fill="#788CA0"/>
<path d="M123.488 9.94252C123.707 9.94252 123.777 10.0122 123.777 10.2312V19.6678C123.777 19.8867 123.707 19.9564 123.488 19.9564H123.07C122.861 19.9564 122.791 19.8867 122.791 19.6678V13.9242C122.791 13.0885 122.848 12.2537 122.96 11.4257H122.901C122.59 12.1829 122.227 12.9179 121.816 13.6256L119.676 17.3982C119.622 17.5322 119.491 17.6193 119.347 17.6172H119.068C118.922 17.6179 118.789 17.5319 118.73 17.3982L116.56 13.5858C116.175 12.8882 115.842 12.1629 115.564 11.4157H115.505C115.607 12.2514 115.66 13.0923 115.664 13.9341V19.6678C115.664 19.8867 115.594 19.9564 115.375 19.9564H114.987C114.768 19.9564 114.698 19.8867 114.698 19.6678V10.2312C114.698 10.0122 114.768 9.94252 114.987 9.94252H115.346C115.513 9.92688 115.673 10.0186 115.744 10.1715L119.228 16.363L122.692 10.2312C122.801 10.0222 122.861 9.99229 123.08 9.99229L123.488 9.94252Z" fill="#788CA0"/>
<path fill-rule="evenodd" clip-rule="evenodd" d="M3.07231 0.964191V21.1811C3.07231 21.4293 2.97373 21.6673 2.79825 21.8428C2.62278 22.0182 2.38478 22.1168 2.13662 22.1168H1.91763C1.40086 22.1168 0.981934 21.6979 0.981934 21.1811V0.964191C0.98739 0.451313 1.40472 0.0384231 1.91763 0.0384521H2.13662C2.64952 0.0384231 3.06685 0.451313 3.07231 0.964191ZM14.55 13.7794C14.7476 13.5912 15.0137 13.4924 15.2862 13.506L15.2365 13.5259C15.5261 13.4964 15.8142 13.5951 16.0248 13.7962C16.2355 13.9972 16.3475 14.2804 16.3314 14.5711V20.0459C16.3314 20.6232 15.8635 21.0911 15.2862 21.0911C14.709 21.0911 14.241 20.6232 14.241 20.0459V14.5014C14.2407 14.2286 14.3524 13.9675 14.55 13.7794ZM17.5358 16.6615C17.5358 16.1117 17.9815 15.6661 18.5312 15.6661C18.8193 15.6396 19.1045 15.7397 19.3129 15.9404C19.5212 16.1411 19.6319 16.4224 19.6162 16.7112V17.9157C19.6162 18.4902 19.1505 18.9559 18.576 18.9559C18.0015 18.9559 17.5358 18.4902 17.5358 17.9157V16.6615ZM9.672 24.9436V17.7467C9.36072 17.9833 8.97783 18.1062 8.58699 18.0951C8.22848 18.0862 7.8812 17.9681 7.59158 17.7566V24.9436C7.59158 25.518 8.05729 25.9838 8.63179 25.9838C9.20628 25.9838 9.672 25.518 9.672 24.9436ZM5.33193 20.4739C4.97374 20.4631 4.627 20.3452 4.33651 20.1354V27.3522C4.33651 27.9295 4.80445 28.3974 5.3817 28.3974C5.95894 28.3974 6.42689 27.9295 6.42689 27.3522V20.1852C6.10183 20.3953 5.71831 20.4964 5.33193 20.4739ZM11.9813 15.6364C11.6064 15.6338 11.2414 15.5156 10.9362 15.298V22.5346C10.9362 23.1119 11.4041 23.5798 11.9813 23.5798C12.5586 23.5798 13.0265 23.1119 13.0265 22.5346V15.3079C12.7107 15.5431 12.3252 15.6658 11.9316 15.6563L11.9813 15.6364ZM5.44137 19.7076H5.22237C4.7056 19.7076 4.28668 19.2886 4.28668 18.7719V3.37275C4.29214 2.85987 4.70947 2.44698 5.22237 2.44701H5.44137C5.95427 2.44698 6.3716 2.85987 6.37706 3.37275V18.7918C6.37706 19.3085 5.95813 19.7275 5.44137 19.7275V19.7076ZM8.50737 17.3388H8.73632C9.24759 17.3388 9.66206 16.9243 9.66206 16.413V5.76205C9.66209 5.24914 9.2492 4.83181 8.73632 4.82636H8.50737C8.26012 4.82634 8.02313 4.92524 7.84923 5.10101C7.67533 5.27678 7.57898 5.51481 7.58163 5.76205V16.413C7.58163 16.9243 7.9961 17.3388 8.50737 17.3388ZM12.0312 14.8999H11.8222C11.3093 14.8999 10.8919 14.487 10.8865 13.9741V8.24052C10.87 7.98218 10.9612 7.72854 11.1385 7.53992C11.3158 7.35131 11.5633 7.24457 11.8222 7.2451H12.0412C12.5579 7.2451 12.9769 7.66402 12.9769 8.18079V13.9542C12.9795 14.2041 12.8821 14.4447 12.7063 14.6223C12.5306 14.7999 12.2911 14.8999 12.0412 14.8999H12.0312ZM15.1169 12.7597H15.3359H15.3459C15.8587 12.7543 16.2716 12.337 16.2716 11.8241V10.3409C16.2661 9.828 15.8488 9.41511 15.3359 9.41514H15.1169C14.604 9.41511 14.1867 9.828 14.1812 10.3409V11.8241C14.1812 12.3408 14.6002 12.7597 15.1169 12.7597Z" fill="#788CA0"/>
</svg>
