<svg width="101" height="48" viewBox="0 0 101 48" fill="none" xmlns="http://www.w3.org/2000/svg">
<path d="M0.843262 28.9786H3.82951V43.6212H0.843262V28.9786Z" fill="#788CA0"/>
<path fill-rule="evenodd" clip-rule="evenodd" d="M8.83598 33.6864C6.85002 34.5123 5.55749 36.4536 5.56152 38.6044C5.54805 40.0174 6.10407 41.3762 7.10415 42.3745C8.10424 43.3727 9.46413 43.9261 10.877 43.91C13.0279 43.91 14.9667 42.6139 15.7889 40.6264C16.6111 38.6389 16.1545 36.3518 14.6322 34.8323C13.1099 33.3129 10.8219 32.8606 8.83598 33.6864ZM10.8384 36.3551C12.1057 36.3334 13.1538 37.3373 13.1865 38.6044C13.2201 39.232 12.9897 39.845 12.551 40.295C12.1123 40.7451 11.5054 40.9911 10.8772 40.9735C9.6096 40.9731 8.57929 39.951 8.56865 38.6835C8.558 37.416 9.571 36.3768 10.8384 36.3551Z" fill="#788CA0"/>
<path fill-rule="evenodd" clip-rule="evenodd" d="M28.1973 43.1238V33.5877L25.2609 33.6176V34.613C24.5458 33.7409 23.461 33.2575 22.3343 33.309C19.5196 33.309 17.2378 35.5908 17.2378 38.4056C17.2378 41.2203 19.5196 43.5021 22.3343 43.5021C23.4619 43.5584 24.5488 43.0741 25.2609 42.1981V43.1238C25.3187 43.739 25.0876 44.3462 24.6354 44.7673C24.1831 45.1883 23.561 45.3755 22.9515 45.274C22.0164 45.3513 21.1288 44.8503 20.7118 44.0098L18.1436 45.4929C19.1475 47.1269 20.9793 48.064 22.8918 47.9218C25.5595 47.9218 28.1973 46.4983 28.1973 43.1238ZM23.8325 36.0923C24.7362 36.4997 25.3015 37.4155 25.2608 38.4059C25.2793 39.0468 25.0259 39.6655 24.5631 40.1093C24.1004 40.5531 23.4716 40.7804 22.832 40.7352C21.8408 40.7343 20.9495 40.1312 20.5801 39.2113C20.2108 38.2915 20.4375 37.2395 21.1529 36.5534C21.8684 35.8673 22.9289 35.6848 23.8325 36.0923Z" fill="#788CA0"/>
<path fill-rule="evenodd" clip-rule="evenodd" d="M33.1939 33.6864C31.2079 34.5123 29.9154 36.4536 29.9194 38.6044C29.906 40.0174 30.462 41.3762 31.4621 42.3745C32.4621 43.3727 33.822 43.9261 35.235 43.91C37.3858 43.91 39.3247 42.6139 40.1468 40.6264C40.969 38.6389 40.5124 36.3518 38.9901 34.8323C37.4678 33.3129 35.1798 32.8606 33.1939 33.6864ZM35.1961 36.3551C36.4635 36.3334 37.5115 37.3373 37.5443 38.6044H37.5244C37.5577 39.2284 37.3299 39.8382 36.8956 40.2876C36.4613 40.7369 35.8597 40.9854 35.2349 40.9735C33.9673 40.9731 32.937 39.951 32.9264 38.6835C32.9157 37.416 33.9287 36.3768 35.1961 36.3551Z" fill="#788CA0"/>
<path fill-rule="evenodd" clip-rule="evenodd" d="M43.7457 29.0886C42.7452 29.0886 41.9341 29.8997 41.9341 30.9003C41.9395 31.8986 42.7475 32.7065 43.7457 32.7119C44.7463 32.7119 45.5574 31.9008 45.5574 30.9003C45.5574 29.8997 44.7463 29.0886 43.7457 29.0886ZM45.2289 33.5882H42.2426V43.622H45.2289V33.5882Z" fill="#788CA0"/>
<path fill-rule="evenodd" clip-rule="evenodd" d="M56.959 42.2537C57.8578 41.2577 58.3221 39.9443 58.249 38.6047C58.3194 37.2668 57.8538 35.9559 56.9553 34.9621C56.0567 33.9683 54.7993 33.3734 53.461 33.3091C52.3334 33.2549 51.2398 33.7033 50.4748 34.5334V33.5878H47.4885V47.663H50.4748V42.6859C51.2398 43.516 52.3334 43.9644 53.461 43.9103C54.8011 43.846 56.0601 43.2497 56.959 42.2537ZM52.8544 36.276C54.158 36.265 55.2298 37.3012 55.2628 38.6045H55.2429C55.2902 39.2638 55.0502 39.9113 54.5848 40.3806C54.1193 40.8499 53.4737 41.0951 52.814 41.0532C51.5108 41.0202 50.4746 39.9484 50.4856 38.6448C50.4966 37.3412 51.5507 36.2871 52.8544 36.276Z" fill="#788CA0"/>
<path d="M67.5463 40.6155C67.5463 42.9248 65.5555 43.9103 63.3656 43.9103C61.5758 44.0688 59.8696 43.123 59.0554 41.5213L61.6634 40.0381C61.8816 40.7842 62.5902 41.2773 63.3656 41.2227C64.0922 41.2227 64.4506 40.9937 64.4506 40.5956C64.4506 39.4906 59.4735 40.0779 59.4735 36.6139C59.4735 34.424 61.325 33.3191 63.4552 33.3191C65.0559 33.2704 66.5572 34.0935 67.3771 35.4692L64.7592 36.8428C64.5229 36.3057 63.9922 35.9584 63.4054 35.9569C62.8878 35.9569 62.5692 36.156 62.5692 36.5243C62.6091 37.669 67.5463 36.9026 67.5463 40.6155Z" fill="#788CA0"/>
<path d="M78.5357 33.5874V43.6212H75.5495V42.6855C74.8448 43.5288 73.7791 43.984 72.6827 43.9099C70.6918 43.9099 68.9299 42.4665 68.9299 39.749V33.5874H71.9162V39.3111C71.863 39.805 72.0349 40.2967 72.3843 40.6499C72.7336 41.0031 73.2234 41.1804 73.7179 41.1327C74.8129 41.1327 75.5793 40.4956 75.5793 39.0722V33.5874H78.5357Z" fill="#788CA0"/>
<path d="M95.7962 37.47V43.6216H92.81V37.7288C92.81 36.7334 92.3222 36.0764 91.3666 36.0764C90.411 36.0764 89.7939 36.7831 89.7939 37.9677V43.6216H86.8076V37.7288C86.8076 36.7334 86.3298 36.0764 85.3642 36.0764C84.3987 36.0764 83.8014 36.7831 83.8014 37.9677V43.6216H80.8152V33.5878H83.8014V34.5136C84.4356 33.6829 85.447 33.2296 86.4891 33.3091C87.5368 33.2583 88.5343 33.7608 89.117 34.633C89.7941 33.7217 90.8916 33.2219 92.0236 33.3091C94.2931 33.3091 95.7962 34.9615 95.7962 37.47Z" fill="#788CA0"/>
<path d="M98.3445 33.5281C99.5759 33.5281 100.574 32.5298 100.574 31.2983C100.574 30.0669 99.5759 29.0686 98.3445 29.0686C97.113 29.0686 96.1147 30.0669 96.1147 31.2983C96.1147 32.5298 97.113 33.5281 98.3445 33.5281Z" fill="#788CA0"/>
<path d="M34.638 21.3839C40.4049 21.3839 45.0799 16.7089 45.0799 10.9419C45.0799 5.17501 40.4049 0.5 34.638 0.5C28.8711 0.5 24.196 5.17501 24.196 10.9419C24.196 16.7089 28.8711 21.3839 34.638 21.3839Z" fill="#788CA0"/>
<path d="M57.9803 21.3839C63.7472 21.3839 68.4222 16.7089 68.4222 10.9419C68.4222 5.17501 63.7472 0.5 57.9803 0.5C52.2133 0.5 47.5383 5.17501 47.5383 10.9419C47.5383 16.7089 52.2133 21.3839 57.9803 21.3839Z" fill="#788CA0"/>
<rect x="0.865723" y="0.500122" width="20.8739" height="20.8739" fill="#788CA0"/>
</svg>
