<svg width="118" height="24" viewBox="0 0 118 24" fill="none" xmlns="http://www.w3.org/2000/svg">
<path d="M37.8412 19.5811C37.2492 19.6132 36.6636 19.4449 36.1789 19.1033C35.7677 18.7985 35.5332 18.3107 35.5518 17.7993V8.57177C35.542 8.4926 35.5692 8.41334 35.6256 8.35693C35.682 8.30053 35.7613 8.27328 35.8404 8.28309H37.5127C37.7019 8.28309 37.7915 8.38264 37.7915 8.57177V17.0826C37.7915 17.4608 37.9607 17.65 38.3091 17.65C38.4568 17.6561 38.6045 17.6393 38.7471 17.6002C38.9461 17.6002 39.0556 17.6599 39.0656 17.8391L39.2149 19.0834C39.2294 19.1568 39.2115 19.2329 39.1657 19.292C39.1199 19.3512 39.0507 19.3876 38.976 19.392C38.6097 19.5129 38.227 19.5767 37.8412 19.5811Z" fill="#788CA0"/>
<path fill-rule="evenodd" clip-rule="evenodd" d="M41.2755 18.5164C43.0088 19.9485 45.5147 19.9485 47.248 18.5164V18.5064C48.7471 16.943 48.7471 14.4756 47.248 12.9122C45.5119 11.4879 43.0116 11.4879 41.2755 12.9122C39.7383 14.464 39.7383 16.9645 41.2755 18.5164ZM45.6951 17.2024C44.8872 17.9343 43.6561 17.9343 42.8482 17.2024C42.1185 16.3634 42.1185 15.115 42.8482 14.2759C43.6561 13.5441 44.8872 13.5441 45.6951 14.2759C46.4248 15.115 46.4248 16.3634 45.6951 17.2024Z" fill="#788CA0"/>
<path fill-rule="evenodd" clip-rule="evenodd" d="M57.859 12.3841C57.859 12.195 57.7694 12.0954 57.5803 12.0954L55.9279 12.1054C55.8504 12.0989 55.774 12.1275 55.72 12.1835C55.6659 12.2395 55.6399 12.3168 55.6492 12.3941V12.5533C55.0417 12.0887 54.2934 11.8463 53.5289 11.8665C52.4802 11.8291 51.4608 12.2167 50.7019 12.9415C49.2102 14.4848 49.2102 16.9328 50.7019 18.4761C51.4573 19.2075 52.4782 19.5993 53.5289 19.5611C54.2719 19.5822 55.0006 19.3544 55.5994 18.914V19.5412C55.6197 20.0024 55.4507 20.4519 55.1315 20.7854C54.7823 21.1042 54.3196 21.2692 53.8475 21.2433C53.4601 21.2511 53.0769 21.1622 52.7326 20.9845C52.4501 20.8318 52.2338 20.5801 52.1254 20.2778C52.0706 20.1434 51.9419 20.0538 51.7969 20.0488H50.1246C49.8558 20.0488 49.8558 20.1384 49.8558 20.3375C49.9959 21.1531 50.4681 21.8741 51.1598 22.3283C51.9612 22.8478 52.903 23.1084 53.8574 23.0749C54.9141 23.1215 55.9492 22.7658 56.7541 22.0795C57.4884 21.4363 57.8942 20.4968 57.859 19.5213V12.3841ZM55.082 17.2016C54.7369 17.5899 54.2374 17.805 53.7182 17.7889C53.1935 17.8041 52.6882 17.5896 52.3346 17.2016C51.9776 16.7917 51.7891 16.2618 51.807 15.7185C51.7851 15.1698 51.9779 14.6342 52.3446 14.2253C52.6974 13.8362 53.2032 13.6215 53.7282 13.638C54.2426 13.6211 54.7381 13.8324 55.082 14.2154C55.7626 15.0944 55.7626 16.3226 55.082 17.2016Z" fill="#788CA0"/>
<path fill-rule="evenodd" clip-rule="evenodd" d="M60.477 18.5164C62.2131 19.9406 64.7134 19.9406 66.4495 18.5164V18.5064C67.9487 16.943 67.9487 14.4756 66.4495 12.9122C64.712 11.4918 62.2145 11.4918 60.477 12.9122C58.9766 14.479 58.9766 16.9496 60.477 18.5164ZM63.4731 17.7501C62.9413 17.7664 62.4251 17.5693 62.0397 17.2026C61.3226 16.3588 61.3226 15.1198 62.0397 14.2761C62.4251 13.9094 62.9413 13.7122 63.4731 13.7286C64.0014 13.7149 64.5135 13.9119 64.8965 14.2761C65.6136 15.1198 65.6136 16.3588 64.8965 17.2026C64.5135 17.5668 64.0014 17.7638 63.4731 17.7501Z" fill="#788CA0"/>
<path fill-rule="evenodd" clip-rule="evenodd" d="M69.2666 10.4038C69.8108 10.8801 70.6236 10.8801 71.1678 10.4038C71.4089 10.1762 71.5456 9.85933 71.5456 9.52779C71.5456 9.19625 71.4089 8.87937 71.1678 8.65182C70.6189 8.18816 69.8155 8.18816 69.2666 8.65182C69.0255 8.87937 68.8888 9.19625 68.8888 9.52779C68.8888 9.85933 69.0255 10.1762 69.2666 10.4038ZM69.7144 19.1036C70.2004 19.4424 70.7851 19.6104 71.3768 19.5814C71.7658 19.5778 72.152 19.514 72.5215 19.3923C72.5962 19.3879 72.6654 19.3515 72.7112 19.2923C72.757 19.2332 72.7749 19.1571 72.7604 19.0837L72.6111 17.8394C72.6011 17.6603 72.4916 17.6005 72.2926 17.6005C72.1465 17.639 71.9956 17.6557 71.8446 17.6503C71.5062 17.6503 71.337 17.4612 71.337 17.0829V12.3845C71.337 12.1954 71.2474 12.0959 71.0582 12.0959H69.3859C69.3068 12.0861 69.2275 12.1133 69.1711 12.1697C69.1147 12.2261 69.0875 12.3054 69.0973 12.3845V17.7996C69.0797 18.3086 69.3097 18.7945 69.7144 19.1036Z" fill="#788CA0"/>
<path fill-rule="evenodd" clip-rule="evenodd" d="M81.759 12.9321C80.9946 12.2032 79.9675 11.8154 78.9121 11.8571C77.9906 11.837 77.1014 12.197 76.4534 12.8525C76.1117 12.1847 75.399 11.7909 74.6517 11.8571C74.2854 11.8503 73.921 11.9111 73.5767 12.0362C73.4325 12.0781 73.3371 12.215 73.3477 12.3647V13.5393C73.3477 13.6986 73.4572 13.7782 73.6762 13.7782H74.0047C74.1666 13.7545 74.3302 13.8086 74.4459 13.9243C74.5616 14.04 74.6158 14.2036 74.592 14.3655V22.5279C74.5775 22.6054 74.6022 22.685 74.6579 22.7407C74.7136 22.7965 74.7933 22.8211 74.8707 22.8067H76.543C76.7322 22.8067 76.8317 22.7171 76.8317 22.5279V18.9345C77.4362 19.3709 78.1667 19.5981 78.9121 19.5815C79.9695 19.624 80.9982 19.232 81.759 18.4965C83.2194 16.9292 83.2194 14.4994 81.759 12.9321ZM78.7329 17.7891C78.2142 17.7891 77.7179 17.5771 77.3593 17.2023C76.9997 16.7781 76.8115 16.235 76.8317 15.6793C76.8086 15.1232 76.9971 14.5789 77.3593 14.1563C77.7179 13.7815 78.2142 13.5695 78.7329 13.5695C79.2517 13.5695 79.748 13.7815 80.1066 14.1563C80.4833 14.5716 80.6802 15.1192 80.6541 15.6793C80.6769 16.2389 80.4805 16.7853 80.1066 17.2023C79.748 17.5771 79.2517 17.7891 78.7329 17.7891Z" fill="#788CA0"/>
<path d="M87.5523 19.5811C86.6587 19.6178 85.7726 19.404 84.994 18.9639C84.3612 18.5828 83.9363 17.9343 83.8394 17.202C83.8394 17.0029 83.909 16.9034 84.128 16.9034H85.5913C85.7332 16.9089 85.8601 16.9935 85.9198 17.1224C86.1288 17.6599 86.6763 17.9287 87.5523 17.9287C87.8578 17.9426 88.1621 17.8811 88.4382 17.7495C88.6324 17.6618 88.7624 17.4743 88.7766 17.2617C88.7766 17.0029 88.6174 16.8237 88.2988 16.7043C87.921 16.5785 87.5304 16.4951 87.1342 16.4554C86.6648 16.4023 86.1993 16.3192 85.7406 16.2066C85.2945 16.1056 84.8888 15.8733 84.576 15.5397C84.2035 15.0812 84.0381 14.4888 84.1193 13.9037C84.2004 13.3187 84.5208 12.7936 85.004 12.4539C85.7215 11.9968 86.5633 11.7742 87.4129 11.8168C88.2355 11.789 89.0494 11.9925 89.7621 12.4041C90.3438 12.7336 90.746 13.3077 90.857 13.9669C90.857 14.166 90.7675 14.2655 90.5883 14.2655H89.1151C88.9881 14.273 88.8696 14.2019 88.8164 14.0863C88.718 13.8506 88.5327 13.6617 88.2988 13.5588C88.035 13.4208 87.7404 13.3522 87.4428 13.3597C87.151 13.3438 86.8599 13.402 86.5967 13.5289C86.4069 13.6021 86.2808 13.7834 86.2781 13.9868C86.2912 14.2662 86.485 14.5045 86.7559 14.5741C87.1382 14.7182 87.5356 14.8184 87.9405 14.8727C88.406 14.934 88.8679 15.0204 89.3241 15.1315C89.7702 15.2325 90.1759 15.4648 90.4887 15.7985C90.8268 16.1697 91.0024 16.6607 90.9765 17.1622C90.994 17.8622 90.6424 18.5198 90.0508 18.8942C89.307 19.3717 88.4355 19.6112 87.5523 19.5811Z" fill="#788CA0"/>
<path d="M101.498 19.0835C101.51 19.1549 101.492 19.2279 101.449 19.286C101.406 19.344 101.341 19.3823 101.269 19.3921C100.906 19.5108 100.527 19.5745 100.144 19.5812C99.375 19.6609 98.6199 19.3325 98.1536 18.7152C97.4505 19.3198 96.5413 19.6299 95.6153 19.5812C94.7459 19.6213 93.9 19.2923 93.286 18.6754C92.6768 18.0295 92.3569 17.1633 92.4001 16.2765V12.3844C92.4001 12.1952 92.4897 12.0957 92.6788 12.0957H94.3511C94.5403 12.0957 94.6298 12.1952 94.6298 12.3844V15.9778C94.6116 16.4255 94.7647 16.8633 95.0579 17.2022C95.3539 17.5163 95.7713 17.6869 96.2026 17.67C96.6433 17.6893 97.0734 17.5316 97.3971 17.2321C97.7037 16.9161 97.8659 16.4873 97.845 16.0475V12.3844C97.845 12.1952 97.9346 12.0957 98.1238 12.0957H99.816C100.005 12.0957 100.095 12.1952 100.095 12.3844V17.0728C100.095 17.461 100.264 17.6501 100.592 17.6501C100.747 17.6561 100.901 17.6393 101.05 17.6004C101.127 17.579 101.208 17.5937 101.272 17.6402C101.336 17.6868 101.376 17.7601 101.379 17.8393L101.498 19.0835Z" fill="#788CA0"/>
<path d="M117.315 19.0834C117.333 19.1556 117.318 19.232 117.274 19.2917C117.229 19.3514 117.161 19.3882 117.086 19.392C116.717 19.5123 116.331 19.5761 115.942 19.5811C115.35 19.6116 114.765 19.4435 114.279 19.1033C113.853 18.8074 113.603 18.3181 113.612 17.7993V15.4601C113.633 15.0137 113.484 14.576 113.194 14.2357C112.911 13.9207 112.502 13.749 112.079 13.7679C111.698 13.7535 111.331 13.9149 111.084 14.2058C110.821 14.5394 110.687 14.9562 110.706 15.3804V19.0535C110.706 19.2427 110.616 19.3422 110.427 19.3422H108.745C108.666 19.352 108.586 19.3248 108.53 19.2684C108.474 19.212 108.446 19.1327 108.456 19.0535V15.4601C108.478 15.0186 108.34 14.584 108.068 14.2357C107.822 13.9395 107.457 13.768 107.072 13.7679C106.662 13.7513 106.263 13.9106 105.978 14.2058C105.693 14.5288 105.546 14.9506 105.569 15.3804V19.0535C105.579 19.1327 105.552 19.212 105.496 19.2684C105.439 19.3248 105.36 19.352 105.281 19.3422H103.658C103.469 19.3422 103.379 19.2427 103.379 19.0535V14.3651C103.403 14.2032 103.349 14.0396 103.233 13.9239C103.118 13.8082 102.954 13.7541 102.792 13.7778H102.464C102.245 13.7778 102.135 13.6982 102.135 13.5389V12.3643C102.125 12.2146 102.22 12.0777 102.364 12.0358C102.708 11.9107 103.073 11.8499 103.439 11.8567C104.157 11.7955 104.846 12.1517 105.211 12.7724C105.89 12.129 106.806 11.7972 107.739 11.8567C108.649 11.8123 109.525 12.2042 110.099 12.9118C110.766 12.1868 111.723 11.7995 112.707 11.8567C113.585 11.8156 114.44 12.1441 115.066 12.7625C115.677 13.4072 115.997 14.2742 115.952 15.1615V17.0826C115.952 17.4609 116.121 17.65 116.439 17.65C116.594 17.6572 116.748 17.6404 116.897 17.6002C117.103 17.6002 117.212 17.6799 117.226 17.8391L117.315 19.0834Z" fill="#788CA0"/>
<path fill-rule="evenodd" clip-rule="evenodd" d="M0.593034 10.8019C2.10416 4.72815 7.55829 0.464722 13.8172 0.464722C20.076 0.464722 25.5302 4.72815 27.0413 10.8019H25.8468C23.8317 10.7722 21.858 11.3744 20.2028 12.5239C20.1072 12.5931 20.0075 12.6563 19.9041 12.7131H19.7648C19.6614 12.6563 19.5617 12.5931 19.4661 12.5239C16.0504 10.227 11.5839 10.227 8.16816 12.5239C8.07263 12.5931 7.9729 12.6563 7.86954 12.7131H7.73018C7.62681 12.6563 7.52708 12.5931 7.43155 12.5239C5.7763 11.3744 3.80258 10.7722 1.78753 10.8019H0.593034ZM23.6963 17.0432C24.3095 16.5656 25.0695 16.3158 25.8464 16.3364H27.4491V13.1411H25.8464C24.478 13.1246 23.1408 13.5505 22.034 14.3555C20.7555 15.2981 19.0122 15.2981 17.7338 14.3555C15.4095 12.7375 12.3237 12.7375 9.99939 14.3555C8.72093 15.2981 6.97764 15.2981 5.69918 14.3555C4.57874 13.5402 3.22238 13.1137 1.83696 13.1411H0.18457V16.3364H1.78719C2.56412 16.3158 3.32411 16.5656 3.93729 17.0432C6.25756 18.6623 9.34147 18.6623 11.6617 17.0432C12.2757 16.5671 13.0351 16.3175 13.8118 16.3364C14.589 16.3141 15.3495 16.5641 15.9619 17.0432C18.2862 18.6611 21.3721 18.6611 23.6963 17.0432ZM25.8464 22.0499C25.0695 22.0293 24.3095 22.2791 23.6963 22.7566C21.3721 24.3746 18.2862 24.3746 15.9619 22.7566C15.3495 22.2776 14.589 22.0276 13.8118 22.0499C13.0351 22.0309 12.2757 22.2806 11.6617 22.7566C9.34147 24.3758 6.25756 24.3758 3.93729 22.7566C3.32411 22.2791 2.56412 22.0293 1.78719 22.0499H0.18457V18.8546H1.83696C3.22238 18.8272 4.57874 19.2537 5.69918 20.069C6.97764 21.0116 8.72093 21.0116 9.99939 20.069C12.3237 18.451 15.4095 18.451 17.7338 20.069C19.0122 21.0116 20.7555 21.0116 22.034 20.069C23.1408 19.264 24.478 18.8381 25.8464 18.8546H27.4491V22.0499H25.8464Z" fill="#788CA0"/>
</svg>
