<svg width="123" height="29" viewBox="0 0 123 29" fill="none" xmlns="http://www.w3.org/2000/svg">
<path d="M26.3985 9.94287C26.7569 9.94287 26.8763 10.0723 26.8763 10.4207V18.3044H30.9277C31.2761 18.3044 31.4055 18.4338 31.4055 18.7822V19.479C31.4055 19.8274 31.2761 19.9568 30.9277 19.9568H25.5922C25.2439 19.9568 25.1045 19.8274 25.1045 19.479V10.4207C25.1045 10.0723 25.2439 9.94287 25.5922 9.94287H26.3985Z" fill="#788CA0"/>
<path fill-rule="evenodd" clip-rule="evenodd" d="M38.9209 9.73352C36.3925 9.73352 34.9392 11.1172 34.9392 13.4166V16.4825C34.9392 18.7819 36.4025 20.1655 38.9209 20.1655C41.4393 20.1655 42.9026 18.7819 42.9026 16.4825V13.4166C42.9026 11.1172 41.4492 9.73352 38.9209 9.73352ZM38.9707 11.4256C40.424 11.4256 41.2303 12.1224 41.2303 13.4164V16.5022C41.2303 17.7764 40.424 18.4931 38.9707 18.4931C37.5174 18.4931 36.721 17.8062 36.721 16.5022V13.4164C36.721 12.1324 37.5174 11.4256 38.9707 11.4256Z" fill="#788CA0"/>
<path d="M54.7582 14.4716C55.1464 14.4716 55.236 14.601 55.236 14.9494V16.8407C55.2573 17.743 54.8695 18.6065 54.1808 19.1899C53.3364 19.8623 52.2717 20.1959 51.1946 20.1256C48.6164 20.1256 47.2129 18.742 47.2129 16.4425V13.3567C47.2129 11.0872 48.6662 9.6936 51.1946 9.6936C53.1854 9.6936 54.4794 10.48 55.0269 12.0527C55.089 12.1726 55.091 12.3146 55.0322 12.4361C54.9734 12.5576 54.8608 12.6442 54.7283 12.6699L53.9519 12.9387C53.6134 13.0581 53.4741 12.9884 53.3546 12.64C53.0154 11.7654 52.1258 11.2324 51.1946 11.346C49.7313 11.346 48.935 12.0527 48.935 13.3368V16.5023C48.935 17.8063 49.7413 18.4931 51.1946 18.4931C52.6479 18.4931 53.5437 17.8262 53.5437 16.8507V16.114H51.3837C51.0253 16.114 50.8959 15.9747 50.8959 15.6263V14.9494C50.8959 14.601 51.0253 14.4716 51.3837 14.4716H54.7582Z" fill="#788CA0"/>
<path fill-rule="evenodd" clip-rule="evenodd" d="M63.3286 9.73352C60.8002 9.73352 59.3469 11.1172 59.3469 13.4166V16.4825C59.3469 18.7819 60.8102 20.1655 63.3286 20.1655C65.847 20.1655 67.3103 18.7819 67.3103 16.4825V13.4166C67.3103 11.1172 65.857 9.73352 63.3286 9.73352ZM63.3784 11.4256C64.8217 11.4256 65.628 12.1224 65.628 13.4164V16.5022C65.628 17.7764 64.8317 18.4931 63.3784 18.4931C61.925 18.4931 61.1188 17.8062 61.1188 16.5022V13.4164C61.1188 12.1324 61.935 11.4256 63.3784 11.4256Z" fill="#788CA0"/>
<path d="M71.9988 10.2315C71.9988 10.0126 72.0685 9.94287 72.2875 9.94287H72.7453C72.9643 9.94287 73.0141 10.0126 73.0141 10.2315V19.6681C73.0141 19.8871 73.0141 19.9568 72.7453 19.9568H72.2875C72.0685 19.9568 71.9988 19.8871 71.9988 19.6681V10.2315Z" fill="#788CA0"/>
<path fill-rule="evenodd" clip-rule="evenodd" d="M85.2078 13.0685C85.2078 11.3423 83.8084 9.94287 82.0821 9.94287H78.3692C78.1602 9.94287 78.0806 10.0126 78.0806 10.2315V19.6681C78.0806 19.8871 78.1602 19.9568 78.3692 19.9568H78.8371C79.0461 19.9568 79.0959 19.8871 79.0959 19.6681V16.1941H82.0821C83.8084 16.1941 85.2078 14.7947 85.2078 13.0685ZM83.8707 14.1228C83.4831 14.7942 82.7667 15.2078 81.9914 15.2078H79.0052V10.8678H81.9914C82.7667 10.8678 83.4831 11.2814 83.8707 11.9528C84.2584 12.6242 84.2584 13.4514 83.8707 14.1228Z" fill="#788CA0"/>
<path d="M92.9821 9.74361C94.5602 9.56945 96.0656 10.4517 96.685 11.9136C96.7646 12.0729 96.685 12.2023 96.5257 12.2819L96.0878 12.481C95.9086 12.5507 95.8389 12.5407 95.7294 12.3516C95.2667 11.2674 94.1556 10.6072 92.9821 10.7191C91.2998 10.7191 90.384 11.3861 90.384 12.5806C90.3638 13.3354 90.9033 13.9896 91.6482 14.1135C92.1836 14.2881 92.7387 14.3951 93.3006 14.432C93.9808 14.4683 94.6518 14.6059 95.2914 14.8402C96.3021 15.1599 96.9502 16.1445 96.8443 17.1993C96.8443 19.0607 95.4905 20.1855 93.002 20.1855C91.32 20.378 89.7319 19.3703 89.1895 17.7667C89.154 17.6948 89.1523 17.6109 89.1851 17.5377C89.2178 17.4645 89.2815 17.4098 89.3587 17.3884L89.7967 17.2292C89.8665 17.2007 89.945 17.2028 90.0131 17.2349C90.0813 17.2671 90.1328 17.3264 90.1551 17.3984C90.612 18.5523 91.7639 19.2773 93.002 19.1901C94.8833 19.1901 95.809 18.5332 95.809 17.1993C95.8452 16.4752 95.3527 15.8311 94.6444 15.6763C94.1293 15.5227 93.5982 15.4291 93.0617 15.3976L91.9866 15.2582C91.6502 15.1868 91.3179 15.0971 90.9912 14.9895C90.6685 14.892 90.3677 14.7331 90.1053 14.5216C89.5708 14.0375 89.279 13.3409 89.309 12.6204C89.3786 10.8784 90.6826 9.74361 92.9821 9.74361Z" fill="#788CA0"/>
<path d="M102.21 16.5524C102.297 18.0137 103.508 19.1538 104.972 19.1538C106.436 19.1538 107.646 18.0137 107.734 16.5524V10.2315C107.734 10.0126 107.804 9.94287 108.023 9.94287H108.481C108.7 9.94287 108.769 10.0126 108.769 10.2315V16.5425C108.769 18.8021 107.436 20.1658 104.977 20.1658C102.518 20.1658 101.184 18.8021 101.184 16.5425V10.2315C101.184 10.0126 101.254 9.94287 101.463 9.94287H101.931C102.14 9.94287 102.21 10.0126 102.21 10.2315V16.5524Z" fill="#788CA0"/>
<path d="M122.506 9.94277C122.725 9.94277 122.795 10.0124 122.795 10.2314V19.668C122.795 19.887 122.725 19.9567 122.506 19.9567H122.088C121.879 19.9567 121.809 19.887 121.809 19.668V13.9244C121.809 13.0887 121.866 12.254 121.979 11.4259H121.919C121.608 12.1832 121.245 12.9182 120.834 13.6258L118.694 17.3984C118.64 17.5324 118.509 17.6195 118.365 17.6174H118.086C117.94 17.6181 117.807 17.5322 117.748 17.3984L115.578 13.586C115.193 12.8885 114.86 12.1631 114.583 11.416H114.523C114.625 12.2516 114.678 13.0925 114.682 13.9344V19.668C114.682 19.887 114.612 19.9567 114.393 19.9567H114.005C113.786 19.9567 113.717 19.887 113.717 19.668V10.2314C113.717 10.0124 113.786 9.94277 114.005 9.94277H114.364C114.531 9.92713 114.691 10.0188 114.762 10.1717L118.246 16.3632L121.71 10.2314C121.819 10.0224 121.879 9.99254 122.098 9.99254L122.506 9.94277Z" fill="#788CA0"/>
<path fill-rule="evenodd" clip-rule="evenodd" d="M2.09038 0.963946V21.1809C2.09038 21.429 1.9918 21.667 1.81632 21.8425C1.64084 22.018 1.40285 22.1166 1.15468 22.1166H0.935693C0.418924 22.1166 0 21.6976 0 21.1809V0.963946C0.00545645 0.451069 0.422786 0.038179 0.935693 0.038208H1.15468C1.66759 0.038179 2.08492 0.451069 2.09038 0.963946ZM13.5681 13.7797C13.7657 13.5915 14.0318 13.4927 14.3043 13.5064L14.2546 13.5263C14.5442 13.4967 14.8323 13.5955 15.0429 13.7965C15.2536 13.9975 15.3656 14.2807 15.3495 14.5715V20.0463C15.3495 20.6235 14.8816 21.0914 14.3043 21.0914C13.7271 21.0914 13.2592 20.6235 13.2592 20.0463V14.5018C13.2588 14.2289 13.3705 13.9679 13.5681 13.7797ZM16.5539 16.6618C16.5539 16.1121 16.9996 15.6664 17.5493 15.6664C17.8374 15.6399 18.1226 15.7401 18.331 15.9407C18.5393 16.1414 18.65 16.4228 18.6343 16.7116V17.916C18.6343 18.4905 18.1686 18.9563 17.5941 18.9563C17.0196 18.9563 16.5539 18.4905 16.5539 17.916V16.6618ZM8.6901 24.9433V17.7464C8.37882 17.983 7.99593 18.106 7.60509 18.0948C7.24658 18.0859 6.8993 17.9679 6.60968 17.7564V24.9433C6.60968 25.5178 7.07539 25.9835 7.64989 25.9835C8.22438 25.9835 8.6901 25.5178 8.6901 24.9433ZM4.35003 20.4742C3.99184 20.4635 3.64511 20.3456 3.35461 20.1358V27.3526C3.35461 27.9298 3.82256 28.3977 4.3998 28.3977C4.97704 28.3977 5.44499 27.9298 5.44499 27.3526V20.1855C5.11994 20.3957 4.73641 20.4968 4.35003 20.4742ZM10.9994 15.6362C10.6245 15.6336 10.2595 15.5154 9.95426 15.2977V22.5344C9.95426 23.1116 10.4222 23.5796 10.9994 23.5796C11.5767 23.5796 12.0446 23.1116 12.0446 22.5344V15.3077C11.7288 15.5429 11.3433 15.6656 10.9497 15.6561L10.9994 15.6362ZM4.45947 19.7079H4.24047C3.72371 19.7079 3.30478 19.289 3.30478 18.7722V3.37309C3.31024 2.86021 3.72757 2.44732 4.24047 2.44735H4.45947C4.97237 2.44732 5.3897 2.86021 5.39516 3.37309V18.7921C5.39516 19.3089 4.97624 19.7278 4.45947 19.7278V19.7079ZM7.52547 17.3385H7.75442C8.26569 17.3385 8.68016 16.924 8.68016 16.4128V5.7618C8.68019 5.2489 8.2673 4.83157 7.75442 4.82611H7.52547C7.27822 4.8261 7.04123 4.92499 6.86733 5.10076C6.69343 5.27653 6.59708 5.51456 6.59974 5.7618V16.4128C6.59974 16.924 7.0142 17.3385 7.52547 17.3385ZM11.0493 14.8996H10.8403C10.3274 14.8996 9.91003 14.4868 9.90458 13.9739V8.24027C9.88805 7.98193 9.97929 7.72829 10.1566 7.53968C10.3339 7.35106 10.5814 7.24432 10.8403 7.24485H11.0593C11.576 7.24485 11.995 7.66377 11.995 8.18054V13.954C11.9976 14.2038 11.9002 14.4444 11.7244 14.622C11.5487 14.7997 11.3092 14.8996 11.0593 14.8996H11.0493ZM14.135 12.7601H14.354H14.364C14.8768 12.7546 15.2897 12.3373 15.2897 11.8244V10.3412C15.2842 9.82834 14.8669 9.41545 14.354 9.41548H14.135C13.6221 9.41545 13.2048 9.82834 13.1993 10.3412V11.8244C13.1993 12.3412 13.6183 12.7601 14.135 12.7601Z" fill="#788CA0"/>
</svg>
