<svg width="127" height="30" viewBox="0 0 127 30" fill="none" xmlns="http://www.w3.org/2000/svg">
<path fill-rule="evenodd" clip-rule="evenodd" d="M75.578 8.76401C74.9708 9.03878 74.5916 9.65509 74.62 10.321L74.6399 10.3309C74.6451 10.7516 74.8186 11.1526 75.1217 11.4444C75.4247 11.7362 75.832 11.8945 76.2525 11.8838C76.919 11.8832 77.5182 11.4775 77.7663 10.8589C78.0143 10.2402 77.8614 9.53296 77.3799 9.07207C76.8985 8.61117 76.1852 8.48923 75.578 8.76401ZM39.7506 9.50361H36.5553V22.444H39.7506V9.50361ZM46.0018 12.4509C43.0156 12.4509 41.0247 14.372 41.0247 17.5773C41.0247 20.8522 42.9459 22.7236 46.0018 22.7236C49.0578 22.7236 50.9789 20.7825 50.9789 17.5773C50.9789 14.372 48.9881 12.4509 46.0018 12.4509ZM47.8136 17.5774C47.8136 15.8155 47.1268 14.7803 46.0318 14.7803C44.9368 14.7803 44.26 15.7757 44.26 17.5774C44.26 19.3791 44.9368 20.3646 46.0318 20.3646C47.1268 20.3646 47.8335 19.3791 47.8335 17.5873L47.8136 17.5774ZM55.3388 23.1121H52.253L52.2729 23.1221C52.452 24.9039 54.2239 26.1681 56.9911 26.178C60.0371 26.178 62.1076 24.7147 62.1076 22.3755V12.6801H58.9422V14.2855C58.4017 13.2035 57.2668 12.5352 56.0455 12.6005C53.547 12.6005 52.0638 14.5117 52.0638 17.5776C52.0638 20.6435 53.6167 22.4253 55.9559 22.4253C57.208 22.517 58.3879 21.8337 58.9322 20.7042V22.475C58.9322 23.4506 58.2951 24.1075 57.0708 24.1075C56.3355 24.2018 55.6275 23.7949 55.3388 23.1121ZM58.9424 17.5778C58.9424 16.015 58.2257 15.0295 57.0909 15.0295C55.9562 15.0295 55.2594 16.025 55.2594 17.5778C55.2594 19.1307 55.9462 20.0465 57.0909 20.0465C58.2357 20.0465 58.9424 19.2003 58.9424 17.5778ZM68.3488 12.4509C65.3626 12.4509 63.3718 14.372 63.3718 17.5773H63.3917C63.3917 20.8522 65.3029 22.7236 68.3488 22.7236C71.3948 22.7236 73.3259 20.7825 73.3259 17.5773C73.3259 14.372 71.3351 12.4509 68.3488 12.4509ZM70.1606 17.5774C70.1606 15.8155 69.4638 14.7803 68.3788 14.7803C67.2938 14.7803 66.607 15.7757 66.607 17.5774C66.607 19.3791 67.2839 20.3646 68.3788 20.3646C69.4738 20.3646 70.1805 19.3791 70.1805 17.5873L70.1606 17.5774ZM74.62 12.6702H77.8551V22.485H74.6698L74.62 12.6702ZM85.6194 22.6245C88.0582 22.6245 89.4916 20.773 89.4916 17.5777L89.5513 17.5877C89.5513 14.3824 88.1079 12.5409 85.5995 12.5608C84.305 12.4992 83.1108 13.2555 82.6132 14.4521H82.5535V12.7002H79.3781V25.6406H82.5734V20.8029H82.6331C83.1482 21.9761 84.3405 22.7034 85.6194 22.6245ZM86.2368 17.5772C86.2368 16.0243 85.5101 15.019 84.3853 15.019C83.2605 15.019 82.5537 16.0144 82.5438 17.5772C82.5338 19.14 83.2605 20.1255 84.3853 20.1255C85.5101 20.1255 86.2965 19.1997 86.2965 17.5871L86.2368 17.5772ZM99.3064 15.7357C99.2865 13.7051 97.6242 12.4409 94.9465 12.4409L95.0062 12.4509C92.3087 12.4509 90.6364 13.6951 90.5766 15.6461C90.5766 17.1492 91.582 18.1546 93.5032 18.5627L95.3546 18.9509C96.1211 19.1102 96.4197 19.1998 96.4197 19.7274C96.4197 20.2549 95.9818 20.5536 95.0461 20.5536C94.1104 20.5536 93.533 20.1255 93.4434 19.3989H90.3477C90.4771 21.3997 92.2589 22.7136 94.9963 22.7136C97.7337 22.7136 99.5752 21.3598 99.5752 19.369C99.5752 17.8858 98.7789 17.0895 96.788 16.6714L94.7375 16.2533C94.0009 16.104 93.6326 15.9448 93.6326 15.4371C93.6326 14.9294 94.0506 14.591 94.9266 14.591C95.8026 14.591 96.3899 15.029 96.3899 15.7357H99.3064ZM110.276 22.4751H107.18V20.6336H107.12C106.763 21.8988 105.576 22.7469 104.264 22.6742C103.29 22.7059 102.35 22.3206 101.679 21.6152C101.008 20.9099 100.67 19.9515 100.75 18.9812V12.6802H103.945V18.2943C103.945 19.449 104.552 20.0761 105.548 20.0761C106.02 20.0726 106.468 19.8645 106.775 19.5056C107.083 19.1467 107.219 18.6722 107.15 18.2048V12.6802H110.336L110.276 22.4751ZM114.925 12.6703H111.819L111.839 22.4852H115.034V16.6918C114.982 16.2844 115.109 15.8744 115.382 15.5673C115.655 15.2602 116.047 15.0859 116.457 15.0892C117.333 15.0892 117.821 15.6168 117.821 16.6122V22.4852H120.867V16.6719C120.812 16.2691 120.935 15.8622 121.205 15.558C121.475 15.2537 121.864 15.0825 122.271 15.0892C123.177 15.0892 123.644 15.6466 123.644 16.6421V22.4852H126.86V15.8258C126.925 14.9438 126.612 14.0756 125.998 13.439C125.384 12.8023 124.528 12.4575 123.644 12.4912C122.293 12.4279 121.067 13.2816 120.658 14.5716H120.519C120.282 13.2784 119.101 12.3773 117.791 12.4912C116.497 12.4648 115.347 13.3156 114.994 14.5616H114.925V12.6703Z" fill="#788CA0"/>
<path fill-rule="evenodd" clip-rule="evenodd" d="M30.2346 10.3507C30.2348 6.29579 27.7463 2.65641 23.9676 1.18544C20.1889 -0.28553 15.8947 0.713488 13.1533 3.70134H0.730469V29.9206H26.9597V17.667C29.0418 15.8047 30.2328 13.1442 30.2346 10.3507ZM25.1877 10.3506C25.1918 12.2921 24.0253 14.0446 22.2328 14.7904C20.4403 15.5362 18.375 15.1281 17.0007 13.7567C15.6265 12.3853 15.2141 10.3209 15.9562 8.5268C16.6982 6.73272 18.4483 5.56267 20.3898 5.56266C23.0358 5.56266 25.1822 7.7047 25.1877 10.3506ZM5.7769 24.8738H21.9126V20.066C21.4092 20.1494 20.8999 20.1927 20.3896 20.1954C14.9548 20.1899 10.5504 15.7855 10.5449 10.3507C10.5493 9.81321 10.5993 9.27709 10.6943 8.74806H5.7769V24.8738Z" fill="#788CA0"/>
</svg>
